Coordinates
version=1
nRows=14
nColumns=63
inDegrees=yes

Units are S.I. units (second, meters, Newtons, ...)
If the header above contains a line with 'inDegrees', this indicates whether rotational values are in degrees (yes) or radians (no).

endheader
time	pelvis_tilt	pelvis_list	pelvis_rotation	pelvis_tx	pelvis_ty	pelvis_tz	hip_flexion_r	hip_adduction_r	hip_rotation_r	knee_angle_r	knee_angle_r_beta	ankle_angle_r	subtalar_angle_r	mtp_angle_r	hip_flexion_l	hip_adduction_l	hip_rotation_l	knee_angle_l	knee_angle_l_beta	ankle_angle_l	subtalar_angle_l	mtp_angle_l	L5_S1_Flex_Ext	L5_S1_Lat_Bending	L5_S1_axial_rotation	L4_L5_Flex_Ext	L4_L5_Lat_Bending	L4_L5_axial_rotation	L3_L4_Flex_Ext	L3_L4_Lat_Bending	L3_L4_axial_rotation	L2_L3_Flex_Ext	L2_L3_Lat_Bending	L2_L3_axial_rotation	L1_L2_Flex_Ext	L1_L2_Lat_Bending	L1_L2_axial_rotation	L1_T12_Flex_Ext	L1_T12_Lat_Bending	L1_T12_axial_rotation	Abs_r3	Abs_r2	Abs_r1	Abs_t1	Abs_t2	neck_flexion	neck_bending	neck_rotation	arm_flex_r	arm_add_r	arm_rot_r	elbow_flex_r	pro_sup_r	wrist_flex_r	wrist_dev_r	arm_flex_l	arm_add_l	arm_rot_l	elbow_flex_l	pro_sup_l	wrist_flex_l	wrist_dev_l
2.716667	-12.716500	5.204846	83.263789	0.281164	0.695294	0.687858	0.236551	-7.091435	5.279660	2.571350	0.044879	7.224044	-11.963104	0.000000	-0.419698	7.216686	-25.616570	5.808562	0.101379	4.273055	17.497054	0.000000	-0.176672	-1.918991	-3.751981	-0.328098	-2.552258	-3.986480	-0.290255	-4.665835	-3.986480	-0.201919	-4.665835	-3.282983	-0.164058	-3.913207	-3.048484	-0.100951	-2.972517	-2.813986	-1.261952	-21.708011	-20.867392	0.000000	0.000000	-4.628216	13.907211	34.026984	13.038463	8.514878	192.546274	0.049161	0.589706	-69.903165	-24.637925	-60.631492	-13.288868	-37.691544	122.015490	89.476283	27.266074	29.240562
2.733333	-12.589511	4.520091	84.710058	0.277374	0.694383	0.686961	0.882888	-6.939624	3.612149	3.067432	0.053537	7.865939	-12.195932	0.000000	0.004720	7.191727	-23.877463	5.435167	0.094862	4.426699	17.483660	0.000000	-0.169795	-1.878961	-3.671473	-0.315327	-2.499018	-3.900940	-0.278957	-4.568506	-3.900940	-0.194059	-4.568506	-3.212539	-0.157672	-3.831578	-2.983072	-0.097021	-2.910511	-2.753605	-1.212831	-21.255186	-20.419632	0.000000	0.000000	-3.281742	14.063916	32.481614	11.881127	7.792115	189.765940	0.050407	0.570185	-69.899515	-24.621578	-59.249257	-14.483431	-36.776780	119.894493	89.481413	30.500069	29.916027
2.750000	-12.426151	3.821411	86.215260	0.273378	0.693281	0.685810	1.562389	-6.783719	1.956781	3.602383	0.062873	8.828951	-12.284777	0.000000	0.460230	7.136565	-22.120371	5.124711	0.089443	4.771095	17.489558	0.000000	-0.162130	-1.833885	-3.570790	-0.301092	-2.439068	-3.793965	-0.266364	-4.458909	-3.793965	-0.185299	-4.458909	-3.124442	-0.150554	-3.739659	-2.901267	-0.092641	-2.840689	-2.678093	-1.158081	-20.745279	-19.859665	0.000000	0.000000	-1.953333	14.298314	30.755927	10.608045	7.016157	186.711421	0.051906	0.550048	-69.894857	-24.600961	-57.778958	-15.684958	-35.722230	117.663998	89.487655	33.509305	30.690687
2.766667	-12.215470	3.139740	87.753944	0.269218	0.692055	0.684448	2.248276	-6.615239	0.351930	4.163452	0.072666	10.090709	-12.230528	0.000000	0.919732	7.040554	-20.365316	4.877598	0.085130	5.289075	17.515822	0.000000	-0.155700	-1.783065	-3.458773	-0.289150	-2.371476	-3.674946	-0.255799	-4.335344	-3.674946	-0.177949	-4.335344	-3.026426	-0.144583	-3.636026	-2.810253	-0.088967	-2.761967	-2.594080	-1.112146	-20.170386	-19.236656	0.000000	0.000000	-0.684341	14.606205	28.941235	9.249505	6.217659	183.452533	0.053652	0.531532	-69.889305	-24.577039	-56.218132	-16.839121	-34.576597	115.338595	89.496059	36.391988	31.535271
2.783333	-11.956033	2.504135	89.260620	0.264957	0.690761	0.683002	2.929949	-6.435212	-1.141548	4.747077	0.082852	11.597677	-12.023997	0.000000	1.360414	6.904838	-18.696945	4.691619	0.081884	5.949773	17.569442	0.000000	-0.152113	-1.726630	-3.349794	-0.282490	-2.296418	-3.559156	-0.249907	-4.198128	-3.559156	-0.173850	-4.198128	-2.931070	-0.141253	-3.520943	-2.721707	-0.086918	-2.674549	-2.512345	-1.086531	-19.531981	-18.630548	0.000000	0.000000	0.519333	14.929899	27.160085	7.898278	5.424012	180.244952	0.055554	0.514255	-69.882894	-24.547982	-54.637357	-17.846083	-33.407527	112.994518	89.505286	38.891897	32.438637
2.800000	-11.638343	1.941471	90.706176	0.260624	0.689471	0.681568	3.582876	-6.229028	-2.450614	5.345501	0.093297	13.266303	-11.754869	0.000000	1.759859	6.718373	-17.120605	4.569673	0.079756	6.735803	17.634178	0.000000	-0.154022	-1.663781	-3.260592	-0.286034	-2.212828	-3.464379	-0.253042	-4.045316	-3.464379	-0.176031	-4.045316	-2.853018	-0.143025	-3.392782	-2.649231	-0.088008	-2.577196	-2.445444	-1.100161	-18.821020	-18.134436	0.000000	0.000000	1.645448	15.195192	25.543018	6.638843	4.669163	177.238019	0.057608	0.500352	-69.875744	-24.513321	-53.105188	-18.630194	-32.227348	110.690267	89.513781	40.720024	33.298670
2.816667	-11.253216	1.468870	92.019588	0.256306	0.688228	0.680231	4.202652	-5.985613	-3.526517	5.949212	0.103833	15.024245	-11.429868	0.000000	2.102383	6.472768	-15.714327	4.499570	0.078532	7.621341	17.718234	0.000000	-0.161525	-1.594048	-3.191709	-0.299968	-2.120084	-3.391191	-0.265370	-3.875768	-3.391191	-0.184607	-3.875768	-2.792745	-0.149992	-3.250582	-2.593264	-0.092295	-2.469180	-2.393782	-1.153758	-18.032188	-17.751328	0.000000	0.000000	2.699030	15.377840	24.137384	5.550657	3.968242	174.571241	0.059782	0.490317	-69.867974	-24.474354	-51.648793	-19.147970	-31.071211	108.480749	89.519430	41.856081	34.095160
2.833333	-10.815282	1.098730	93.219743	0.251995	0.687086	0.679045	4.759063	-5.719403	-4.380249	6.531830	0.114002	16.800907	-11.116250	0.000000	2.376507	6.183409	-14.427096	4.476064	0.078122	8.561064	17.813836	0.000000	-0.175901	-1.520409	-3.157582	-0.326665	-2.022144	-3.354931	-0.288987	-3.696722	-3.354931	-0.201037	-3.696722	-2.762884	-0.163341	-3.100418	-2.565535	-0.100510	-2.355113	-2.368186	-1.256442	-17.199170	-17.561523	0.000000	0.000000	3.673145	15.521064	22.989312	4.696153	3.346007	172.332271	0.062155	0.488578	-69.859213	-24.435980	-50.307442	-19.317503	-30.006714	106.419789	89.523175	42.212042	34.708995
2.850000	-10.317129	0.825538	94.279402	0.247763	0.686065	0.678052	5.254490	-5.417593	-5.022489	7.076425	0.123507	18.529504	-10.818912	0.000000	2.586734	5.840376	-13.274142	4.485764	0.078291	9.531683	17.906151	0.000000	-0.196296	-1.442170	-3.152795	-0.364541	-1.918086	-3.349845	-0.322494	-3.506492	-3.349845	-0.224346	-3.506492	-2.758696	-0.182280	-2.940873	-2.561646	-0.112163	-2.233921	-2.364596	-1.402121	-16.314116	-17.534901	0.000000	0.000000	4.585400	15.632187	22.117666	4.108494	2.781790	170.621426	0.064611	0.494641	-69.849797	-24.398971	-49.071822	-19.155751	-29.028966	104.532328	89.523897	41.784226	35.068915
2.866667	-9.786261	0.621760	95.091147	0.243829	0.685149	0.677235	5.728334	-5.083421	-5.368833	7.588267	0.132440	20.161502	-10.553448	0.000000	2.749250	5.460659	-12.368931	4.510818	0.078729	10.498579	18.004546	0.000000	-0.217551	-1.362117	-3.148040	-0.404013	-1.811616	-3.344792	-0.357414	-3.311852	-3.344792	-0.248639	-3.311852	-2.754535	-0.202017	-2.777629	-2.557782	-0.124308	-2.109919	-2.361030	-1.553942	-15.408542	-17.508452	0.000000	0.000000	5.436395	15.704192	21.530610	3.751213	2.260929	169.364809	0.067138	0.506988	-69.840296	-24.364219	-47.934903	-18.735822	-28.076522	102.846043	89.520928	40.401980	35.118561
2.883333	-9.262633	0.469979	95.723243	0.240205	0.684346	0.676556	6.165548	-4.756273	-5.502269	8.041198	0.140345	21.658591	-10.349270	0.000000	2.875883	5.082655	-11.631063	4.539553	0.079230	11.429556	18.102663	0.000000	-0.238146	-1.285913	-3.148651	-0.442261	-1.710264	-3.345441	-0.391250	-3.126568	-3.345441	-0.272177	-3.126568	-2.755069	-0.221143	-2.622233	-2.558279	-0.136077	-1.991878	-2.361488	-1.701055	-14.546499	-17.511850	0.000000	0.000000	6.247430	15.808334	21.126453	3.572559	1.782112	168.507301	0.069806	0.521984	-69.830120	-24.328330	-46.903149	-18.105015	-27.224297	101.383492	89.516084	38.219960	34.868390
2.900000	-8.757919	0.339310	96.073693	0.237090	0.683623	0.675984	6.610953	-4.424936	-5.425695	8.450677	0.147492	22.994440	-10.122421	0.000000	2.989415	4.705707	-11.163431	4.559238	0.079574	12.301566	18.201481	0.000000	-0.253691	-1.213289	-3.115758	-0.471129	-1.613675	-3.310493	-0.416788	-2.949992	-3.310493	-0.289943	-2.949992	-2.726288	-0.235577	-2.474140	-2.531553	-0.144959	-1.879385	-2.336819	-1.812087	-13.724973	-17.328911	0.000000	0.000000	7.045248	15.917054	20.887805	3.481752	1.332158	167.799174	0.072804	0.540386	-69.819928	-24.293518	-45.899746	-17.424360	-26.382412	100.145434	89.508364	35.437528	34.594294
2.916667	-8.306972	0.217460	96.246995	0.234414	0.682967	0.675484	7.037911	-4.124475	-5.208336	8.793521	0.153476	24.114446	-9.991411	0.000000	3.099375	4.363186	-10.865782	4.572828	0.079811	13.102031	18.304406	0.000000	-0.263980	-1.149009	-3.061832	-0.490236	-1.528182	-3.253196	-0.433692	-2.793701	-3.253196	-0.301702	-2.793701	-2.679103	-0.245131	-2.343059	-2.487738	-0.150838	-1.779815	-2.296374	-1.885579	-12.997820	-17.028991	0.000000	0.000000	7.848044	16.069872	20.723105	3.429599	0.932243	167.217169	0.076067	0.557967	-69.808392	-24.251823	-44.939282	-16.792589	-25.565397	99.114618	89.499221	32.269227	34.369889
2.933333	-7.902056	0.104438	96.151473	0.232232	0.682333	0.675124	7.469284	-3.842071	-4.855846	9.094143	0.158723	25.003061	-9.849109	0.000000	3.199642	4.050701	-10.804367	4.561372	0.079611	13.811942	18.381113	0.000000	-0.268327	-1.090053	-2.974043	-0.498310	-1.449771	-3.159921	-0.440834	-2.650356	-3.159921	-0.306671	-2.650356	-2.602288	-0.249168	-2.222837	-2.416410	-0.153322	-1.688493	-2.230533	-1.916632	-12.330903	-16.540738	0.000000	0.000000	8.662761	16.201205	20.695320	3.424987	0.572330	166.792937	0.079732	0.575930	-69.796317	-24.200920	-43.955758	-16.165588	-24.851274	98.193874	89.488779	29.357301	34.287307
